# xmcd CD database file
#
# Track frame offsets:
#	151
#	15920
#	33918
#	53736
#	76301
#	96328
#	114348
#	131997
#	143829
#	158783
#	175619
#
# Disc length: 2518 seconds
#
# Revision: 0
# Processed by: cddbd v1.5.1PL0 Copyright (c) Steve Scherf et al.
# Submitted via: CDex 1.50beta10
#
DISCID=8109d40b
DTITLE=Oshio Kotaro - Be Happy
DYEAR=2004
DGENRE=Jazz
TTITLE0=翼 -You Are The Hero-
TTITLE1=ミスティ・ナイト
TTITLE2=天使の日曜日
TTITLE3=ジュピター
TTITLE4=Dear...
TTITLE5=Aqua-Marine
TTITLE6=見上げてごらん夜の星を
TTITLE7=ファイト!
TTITLE8=Busy2
TTITLE9=桜・咲くころ
TTITLE10=坂の上の公園
EXTD=YEAR: 2004
EXTT0=
EXTT1=
EXTT2=
EXTT3=
EXTT4=
EXTT5=
EXTT6=
EXTT7=
EXTT8=
EXTT9=
EXTT10=
PLAYORDER=
